<svg width="900" height="520" viewBox="0 0 900 520" fill="none" xmlns="http://www.w3.org/2000/svg">
  <defs>
    <linearGradient id="bg" x1="60" y1="44" x2="750" y2="452" gradientUnits="userSpaceOnUse">
      <stop stop-color="#13182B"/>
      <stop offset="0.6" stop-color="#25304A"/>
      <stop offset="1" stop-color="#7E8FC0"/>
    </linearGradient>
    <radialGradient id="glow" cx="0" cy="0" r="1" gradientUnits="userSpaceOnUse" gradientTransform="translate(664 150) rotate(137.631) scale(292.445 192.036)">
      <stop stop-color="#FEFAF3"/>
      <stop offset="1" stop-color="#FEFAF3" stop-opacity="0"/>
    </radialGradient>
    <linearGradient id="hair" x1="246" y1="78" x2="538" y2="418" gradientUnits="userSpaceOnUse">
      <stop stop-color="#090B14"/>
      <stop offset="1" stop-color="#252B40"/>
    </linearGradient>
    <linearGradient id="skin" x1="354" y1="190" x2="560" y2="334" gradientUnits="userSpaceOnUse">
      <stop stop-color="#F8E6E5"/>
      <stop offset="1" stop-color="#DEBBB7"/>
    </linearGradient>
  </defs>
  <rect width="900" height="520" rx="36" fill="url(#bg)"/>
  <ellipse cx="678" cy="128" rx="174" ry="110" fill="url(#glow)" opacity="0.9"/>
  <ellipse cx="250" cy="420" rx="166" ry="84" fill="#B5C3F0" opacity="0.16"/>

  <path d="M186 340C168 234 222 132 320 92C406 58 522 86 590 156C656 224 684 334 630 404C588 458 488 474 408 458C294 434 204 414 186 340Z" fill="url(#hair)"/>
  <path d="M358 118C420 96 500 118 548 170C588 212 594 276 560 326C518 390 412 408 340 360C292 326 272 254 300 198C314 168 332 136 358 118Z" fill="url(#skin)"/>
  <path d="M330 146C372 110 442 104 500 138C474 138 442 146 408 166C372 188 344 214 324 244C314 208 314 178 330 146Z" fill="#0F111C"/>
  <path d="M386 226C426 206 478 218 506 248C476 244 446 248 414 262C388 274 368 292 352 314C350 282 360 246 386 226Z" fill="#FFF6F5"/>
  <path d="M390 226C426 210 470 218 494 244C462 242 430 248 400 260C374 270 352 286 336 308C338 278 354 246 390 226Z" stroke="#24283A" stroke-width="7" stroke-linecap="round" stroke-linejoin="round"/>
  <ellipse cx="436" cy="258" rx="34" ry="22" transform="rotate(-10 436 258)" fill="#95B8F0"/>
  <ellipse cx="440" cy="260" rx="15" ry="15" fill="#171C2F"/>
  <circle cx="432" cy="252" r="6" fill="#FFF8F2"/>
  <path d="M432 322C456 318 482 324 500 338C484 354 458 366 428 372C406 376 386 376 366 372C378 346 398 328 432 322Z" fill="#EAB1AC"/>

  <g stroke="#D8B98A" stroke-width="2.4" stroke-linecap="round" opacity="0.84">
    <path d="M280 184C306 204 326 226 340 250"/>
    <path d="M252 254C276 282 292 308 302 338"/>
    <path d="M568 314C584 340 600 368 608 396"/>
  </g>

  <g fill="#F2D49D" opacity="0.9">
    <circle cx="204" cy="208" r="5"/>
    <circle cx="250" cy="144" r="4"/>
    <circle cx="638" cy="154" r="7"/>
    <circle cx="704" cy="232" r="5"/>
    <circle cx="738" cy="344" r="6"/>
  </g>
</svg>
